<svg width="24" height="24" viewBox="0 0 24 24" fill="none" xmlns="http://www.w3.org/2000/svg">
<path d="M17.7148 8.2334C18.6313 8.23371 19.5 9.12889 19.5 10.4004C19.4999 11.6717 18.6312 12.5661 17.7148 12.5664C16.7983 12.5664 15.9289 11.6719 15.9287 10.4004C15.9287 9.12867 16.7982 8.2334 17.7148 8.2334Z" stroke="#222222"/>
<ellipse cx="17.7145" cy="10.4" rx="0.457132" ry="0.533333" fill="#222222"/>
<ellipse cx="8.57183" cy="13.6" rx="1.37139" ry="1.6" fill="#222222"/>
<path d="M8.57153 13.6C11.8783 13.6 12.9425 8.36729 13.1161 4.99914C13.1445 4.44759 12.6951 4 12.1428 4H11.3143" stroke="#222222" stroke-linecap="round"/>
<path d="M8.57153 13.6C5.26476 13.6 4.20052 8.36729 4.02699 4.99914C3.99857 4.44759 4.44793 4 5.00022 4H5.82874" stroke="#222222" stroke-linecap="round"/>
<path d="M17.7142 12.5333V15.4287C17.7142 17.9533 15.6675 20 13.1428 20C10.6182 20 8.57153 17.9533 8.57153 15.4287V13.6" stroke="#222222" stroke-linecap="round"/>
</svg>
